<?xml version="1.0" encoding="UTF-8" standalone="no"?>
<!-- Created with Inkscape (http://www.inkscape.org/) -->

<svg
   xmlns:dc="http://purl.org/dc/elements/1.1/"
   xmlns:cc="http://creativecommons.org/ns#"
   xmlns:rdf="http://www.w3.org/1999/02/22-rdf-syntax-ns#"
   xmlns:svg="http://www.w3.org/2000/svg"
   xmlns="http://www.w3.org/2000/svg"
   xmlns:sodipodi="http://sodipodi.sourceforge.net/DTD/sodipodi-0.dtd"
   xmlns:inkscape="http://www.inkscape.org/namespaces/inkscape"
   width="5.291666mm"
   height="5.2916737mm"
   viewBox="0 0 5.291666 5.2916737"
   version="1.1"
   id="svg6369"
   inkscape:version="0.92.3 (2405546, 2018-03-11)"
   sodipodi:docname="data.svg">
  <defs
     id="defs6363" />
  <sodipodi:namedview
     id="base"
     pagecolor="#ffffff"
     bordercolor="#666666"
     borderopacity="1.0"
     inkscape:pageopacity="0.0"
     inkscape:pageshadow="2"
     inkscape:zoom="0.35"
     inkscape:cx="-698.3208"
     inkscape:cy="168.82206"
     inkscape:document-units="mm"
     inkscape:current-layer="layer1"
     showgrid="false"
     fit-margin-top="0"
     fit-margin-left="0"
     fit-margin-right="0"
     fit-margin-bottom="0"
     inkscape:window-width="1366"
     inkscape:window-height="705"
     inkscape:window-x="-8"
     inkscape:window-y="1072"
     inkscape:window-maximized="1" />
  <metadata
     id="metadata6366">
    <rdf:RDF>
      <cc:Work
         rdf:about="">
        <dc:format>image/svg+xml</dc:format>
        <dc:type
           rdf:resource="http://purl.org/dc/dcmitype/StillImage" />
        <dc:title></dc:title>
      </cc:Work>
    </rdf:RDF>
  </metadata>
  <g
     inkscape:label="Camada 1"
     inkscape:groupmode="layer"
     id="layer1"
     transform="translate(-151.12416,-188.20916)">
    <g
       id="g4127-0-7-1"
       transform="matrix(0.01033528,0,0,0.01033528,151.12416,188.20916)"
       style="fill:#4d4d4d">
      <g
         id="g4068-2-7-3"
         style="fill:#4d4d4d">
        <g
           id="g4066-1-9-2"
           style="fill:#4d4d4d">
          <g
             id="g4064-2-3-8"
             style="fill:#4d4d4d">
            <path
               id="path4062-7-9-11"
               d="m 492,336 c 11.046,0 20,-8.954 20,-20 V 120 C 512,75.888 476.112,40 432,40 H 406 V 20 C 406,8.954 397.046,0 386,0 374.954,0 366,8.954 366,20 V 40 H 275 V 20 C 275,8.954 266.046,0 255,0 243.954,0 235,8.954 235,20 V 40 H 145 V 20 C 145,8.954 136.046,0 125,0 113.954,0 105,8.954 105,20 V 40 H 80 C 35.888,40 0,75.888 0,120 v 312 c 0,44.112 35.888,80 80,80 h 252 c 0.68,0 1.352,-0.035 2.015,-0.102 0.66,0.066 1.321,0.103 1.981,0.103 5.332,0 10.564,-2.135 14.41,-6.128 l 156,-162 c 5.563,-5.777 7.138,-14.32 3.998,-21.701 C 507.266,314.792 500.021,310 492,310 h -96 c -44.112,0 -80,35.888 -80,80 v 82 H 80 C 57.944,472 40,454.056 40,432 V 120 C 40,97.944 57.944,80 80,80 h 25 v 20 c 0,11.046 8.954,20 20,20 11.046,0 20,-8.954 20,-20 V 80 h 90 v 20 c 0,11.046 8.954,20 20,20 11.046,0 20,-8.954 20,-20 V 80 h 91 v 20 c 0,11.046 8.954,20 20,20 11.046,0 20,-8.954 20,-20 V 80 h 26 c 22.056,0 40,17.944 40,40 v 196 c 0,11.046 8.954,20 20,20 z m -136,54 c 0,-22.056 17.944,-40 40,-40 h 48.976 L 356,442.397 Z"
               inkscape:connector-curvature="0"
               sodipodi:nodetypes="sssscsssccsssccssscssssscscccssscsssscsssccsssccssscssssssccs"
               style="fill:#1da7e7;fill-opacity:1" />
          </g>
        </g>
      </g>
      <g
         id="g4070-2-3-5"
         style="fill:#4d4d4d" />
      <g
         id="g4072-9-4-8"
         style="fill:#4d4d4d" />
      <g
         id="g4074-8-0-4"
         style="fill:#4d4d4d" />
      <g
         id="g4076-6-4-2"
         style="fill:#4d4d4d" />
      <g
         id="g4078-0-0-5"
         style="fill:#4d4d4d" />
      <g
         id="g4080-6-4-9"
         style="fill:#4d4d4d" />
      <g
         id="g4082-7-8-0"
         style="fill:#4d4d4d" />
      <g
         id="g4084-7-5-3"
         style="fill:#4d4d4d" />
      <g
         id="g4086-1-4-8"
         style="fill:#4d4d4d" />
      <g
         id="g4088-0-3-9"
         style="fill:#4d4d4d" />
      <g
         id="g4090-6-2-2"
         style="fill:#4d4d4d" />
      <g
         id="g4092-0-5-9"
         style="fill:#4d4d4d" />
      <g
         id="g4094-7-3-7"
         style="fill:#4d4d4d" />
      <g
         id="g4096-8-2-6"
         style="fill:#4d4d4d" />
      <g
         id="g4098-6-3-6"
         style="fill:#4d4d4d" />
    </g>
  </g>
</svg>
