<?xml version="1.0" encoding="UTF-8" standalone="no"?>
<!-- Created with Inkscape (http://www.inkscape.org/) -->

<svg
   xmlns:dc="http://purl.org/dc/elements/1.1/"
   xmlns:cc="http://creativecommons.org/ns#"
   xmlns:rdf="http://www.w3.org/1999/02/22-rdf-syntax-ns#"
   xmlns:svg="http://www.w3.org/2000/svg"
   xmlns="http://www.w3.org/2000/svg"
   xmlns:sodipodi="http://sodipodi.sourceforge.net/DTD/sodipodi-0.dtd"
   xmlns:inkscape="http://www.inkscape.org/namespaces/inkscape"
   width="8.2005796mm"
   height="8.2020836mm"
   viewBox="0 0 8.2005796 8.2020836"
   version="1.1"
   id="svg8416"
   inkscape:version="0.92.3 (2405546, 2018-03-11)"
   sodipodi:docname="edit.svg">
  <defs
     id="defs8410" />
  <sodipodi:namedview
     id="base"
     pagecolor="#ffffff"
     bordercolor="#666666"
     borderopacity="1.0"
     inkscape:pageopacity="0.0"
     inkscape:pageshadow="2"
     inkscape:zoom="2.8"
     inkscape:cx="-107.41687"
     inkscape:cy="10.367277"
     inkscape:document-units="mm"
     inkscape:current-layer="layer1"
     showgrid="false"
     fit-margin-top="0"
     fit-margin-left="0"
     fit-margin-right="0"
     fit-margin-bottom="0"
     inkscape:window-width="1366"
     inkscape:window-height="705"
     inkscape:window-x="-8"
     inkscape:window-y="1072"
     inkscape:window-maximized="1" />
  <metadata
     id="metadata8413">
    <rdf:RDF>
      <cc:Work
         rdf:about="">
        <dc:format>image/svg+xml</dc:format>
        <dc:type
           rdf:resource="http://purl.org/dc/dcmitype/StillImage" />
        <dc:title />
      </cc:Work>
    </rdf:RDF>
  </metadata>
  <g
     inkscape:label="Camada 1"
     inkscape:groupmode="layer"
     id="layer1"
     transform="translate(-15.726277,-131.57872)">
    <g
       id="g4701-6-4-5-3-2"
       transform="matrix(0.05677422,0,0,0.05677422,106.38896,115.37141)"
       style="fill:#1da7e7;fill-opacity:1">
      <g
         id="g4642-8-4-4-0-5"
         transform="matrix(0.26497395,0.26497395,-0.26497395,0.26497395,-1530.9388,234.24668)"
         style="fill:#1da7e7;fill-opacity:1">
        <g
           id="g4640-1-4-7-4-3"
           style="fill:#1da7e7;fill-opacity:1">
          <path
             id="path4634-6-6-3-8-9"
             d="m 170.5,395.3 c 0,2.2 0.7,4.3 2,6 l 64.4,84.4 c 1.9,2.5 4.8,3.9 7.9,3.9 3.1,0 6,-1.4 7.9,-3.9 l 64.4,-84.4 c 1.3,-1.7 2,-3.8 2,-6 V 86.509995 c 0,-5.5 -4.4,-9.9 -9.9,-9.9 -5.5,0 -9.9,4.4 -9.9,9.9 V 392 L 244.8,463.4 190.3,392 V 87.009995 c 0,-5.5 -4.4,-9.9 -9.9,-9.9 -5.5,0 -9.9,4.4 -9.9,9.9 z"
             style="fill:#1da7e7;fill-opacity:1"
             inkscape:connector-curvature="0"
             sodipodi:nodetypes="sccsccsssscccssss" />
          <path
             id="path4636-7-8-8-7-4"
             d="M 234.9,87.009995 V 373.7 c 0,5.5 4.4,9.9 9.9,9.9 5.5,0 9.9,-4.4 9.9,-9.9 V 87.009995 c 0,-5.5 -4.4,-9.9 -9.9,-9.9 -5.5,0 -9.9,4.4 -9.9,9.9 z"
             style="fill:#1da7e7;fill-opacity:1"
             inkscape:connector-curvature="0"
             sodipodi:nodetypes="sssssss" />
          <path
             id="path4638-8-6-3-8-5"
             d="m 170.5,38.9 v 44.3 c 0,5.5 4.4,9.9 9.9,9.9 h 128.7 c 5.5,0 9.9,-4.4 9.9,-9.9 V 38.9 C 319,17.5 301.6,0 280.1,0 H 209.4 C 188,0 170.5,17.4 170.5,38.9 Z m 128.8,0 v 34.4 h -109 V 38.9 c 0,-10.5 8.6,-19.1 19.1,-19.1 h 70.7 c 10.6,0 19.2,8.5 19.2,19.1 z"
             style="fill:#1da7e7;fill-opacity:1"
             inkscape:connector-curvature="0" />
        </g>
      </g>
      <g
         id="g4644-5-2-3-1-6"
         style="fill:#1da7e7;fill-opacity:1" />
      <g
         id="g4646-6-5-5-1-9"
         style="fill:#1da7e7;fill-opacity:1" />
      <g
         id="g4648-9-8-8-6-4"
         style="fill:#1da7e7;fill-opacity:1" />
      <g
         id="g4650-7-0-3-0-4"
         style="fill:#1da7e7;fill-opacity:1" />
      <g
         id="g4652-7-9-0-6-2"
         style="fill:#1da7e7;fill-opacity:1" />
      <g
         id="g4654-2-1-8-9-8"
         style="fill:#1da7e7;fill-opacity:1" />
      <g
         id="g4656-0-39-2-2-6"
         style="fill:#1da7e7;fill-opacity:1" />
      <g
         id="g4658-6-12-8-3-85"
         style="fill:#1da7e7;fill-opacity:1" />
      <g
         id="g4660-7-1-9-5-5"
         style="fill:#1da7e7;fill-opacity:1" />
      <g
         id="g4662-6-5-4-3-2"
         style="fill:#1da7e7;fill-opacity:1" />
      <g
         id="g4664-1-6-6-1-4"
         style="fill:#1da7e7;fill-opacity:1" />
      <g
         id="g4666-5-9-6-7-7"
         style="fill:#1da7e7;fill-opacity:1" />
      <g
         id="g4668-8-6-6-0-4"
         style="fill:#1da7e7;fill-opacity:1" />
      <g
         id="g4670-0-0-5-8-8"
         style="fill:#1da7e7;fill-opacity:1" />
      <g
         id="g4672-6-9-7-4-2"
         style="fill:#1da7e7;fill-opacity:1" />
    </g>
  </g>
</svg>
